<svg width="63" height="63" viewBox="0 0 63 63" fill="none" xmlns="http://www.w3.org/2000/svg">
<g id="hugeicons:github">
<g id="Group">
<path id="Vector" d="M26.25 53.991C17.2489 57.0281 9.74925 53.991 5.25 44.625" stroke="#769703" stroke-width="4.375" stroke-linecap="round" stroke-linejoin="round"/>
<path id="Vector_2" d="M26.25 57.7494V49.2391C26.25 47.6694 26.733 46.3044 27.51 45.0707C28.0455 44.2254 27.678 43.0232 26.7146 42.7607C18.7268 40.5609 13.125 37.0303 13.125 25.3175C13.125 22.2725 14.1225 19.4113 15.876 16.9175C16.3117 16.298 16.5322 15.9883 16.5847 15.71C16.6372 15.4265 16.5454 15.0617 16.3616 14.3267C15.6187 11.3447 15.6686 8.17628 16.7816 5.3229C16.7816 5.3229 19.0838 4.56953 24.3259 7.8429C25.5229 8.59103 26.1214 8.9664 26.649 9.0504C27.1766 9.1344 27.8801 8.95853 29.2871 8.60678C31.2988 8.10801 33.3649 7.86199 35.4375 7.8744C37.5101 7.86555 39.5758 8.11241 41.5879 8.6094C42.9949 8.96115 43.701 9.1344 44.2286 9.05303C44.7536 8.96903 45.3521 8.59365 46.5491 7.84553C51.7913 4.57215 54.0934 5.32553 54.0934 5.32553C55.2064 8.1789 55.2563 11.3473 54.5134 14.3293C54.3296 15.0643 54.2404 15.4318 54.2929 15.71C54.3454 15.9883 54.5633 16.3007 54.999 16.9202C56.7525 19.4139 57.75 22.2752 57.75 25.3202C57.75 37.0329 52.1483 40.5635 44.1604 42.758C43.197 43.0232 42.8295 44.2254 43.365 45.068C44.142 46.3018 44.625 47.6668 44.625 49.2391V57.7494" stroke="#769703" stroke-width="4.375" stroke-linecap="round" stroke-linejoin="round"/>
</g>
</g>
</svg>
