<svg width="549" height="549" viewBox="0 0 549 549" fill="none" xmlns="http://www.w3.org/2000/svg">
<path d="M263 405.5V540.5H8V8H263V143H287.5V8H541V540.5H287.5V405.5C303.833 403 340.4 393.5 356 375.5L403.5 421.5V484H484.5V402H422.5L375.5 358C398.5 333.167 430.7 265.1 375.5 191.5L422.5 145H484.5V63.5H403V126.5L357.5 172.5C330.5 149.5 264.2 119.3 191 172.5L146 126.5V63.5H64V145H128L172 191.5C149.833 217.167 118.8 286.4 172 358L126.5 402H63.5V484H146V421.5L191.5 375.5C202.167 384.833 231.4 403.9 263 405.5ZM287.5 284H263V260H287.5V284Z" stroke="black" stroke-width="16"/>
</svg>
