<svg xmlns="http://www.w3.org/2000/svg" width="1928" height="1088" viewBox="0 0 1928 1088" fill="none" preserveAspectRatio="none">
                            <path d="M683.375 4.00095L436.5 4.00001C428.216 3.99998 421.5 10.7157 421.5 19L421.5 51.869C421.5 60.1532 414.784 66.869 406.5 66.869L19.0001 66.869C10.7158 66.869 4.00009 73.5847 4.00009 81.869L4.00009 1069C4.00009 1077.28 10.7158 1084 19.0001 1084L1909 1084C1917.28 1084 1924 1077.28 1924 1069L1924 81.869C1924 73.5847 1917.28 66.869 1909 66.869L740.626 66.869C735.557 66.869 730.83 64.3088 728.061 60.0629L695.939 10.8071C693.17 6.56114 688.444 4.00097 683.375 4.00095Z" fill="#312f2f" fill-opacity="1" stroke="#3D4E05" stroke-width="8"/>
                          </svg>